<?xml version="1.0" standalone="no"?>
<!DOCTYPE svg PUBLIC "-//W3C//DTD SVG 20010904//EN"
 "http://www.w3.org/TR/2001/REC-SVG-20010904/DTD/svg10.dtd">
<svg version="1.0" xmlns="http://www.w3.org/2000/svg"
 width="260.000000pt" height="260.000000pt" viewBox="0 0 260.000000 260.000000"
 preserveAspectRatio="xMidYMid meet">
<metadata>
Created by potrace 1.14, written by Peter Selinger 2001-2017
</metadata>
<g transform="translate(0.000000,260.000000) scale(0.100000,-0.100000)"
fill="#000000" stroke="none">
<path d="M2048 2567 c-14 -18 -80 -95 -145 -173 -65 -77 -136 -162 -158 -188
-22 -27 -47 -56 -55 -66 -47 -54 -107 -126 -181 -215 -104 -124 -100 -120
-124 -119 -48 1 -92 -40 -96 -91 -3 -39 2 -47 56 -105 l56 -58 -44 -38 c-197
-173 -480 -156 -595 35 l-21 35 -11 -29 c-11 -29 -142 -323 -200 -450 -31 -68
-52 -115 -55 -125 -2 -6 -24 -57 -55 -125 -48 -105 -71 -156 -165 -370 -53
-121 -108 -245 -122 -276 -21 -47 -31 -58 -56 -63 -71 -14 -76 -103 -6 -121
17 -4 33 0 52 15 15 12 26 24 26 28 -4 28 8 41 59 64 122 55 270 122 337 153
39 18 95 44 125 57 30 14 245 112 478 218 l423 193 -33 20 c-186 111 -203 377
-38 586 l42 52 58 -55 c50 -48 64 -56 97 -56 49 0 97 44 95 88 0 24 12 39 76
93 42 35 79 66 82 69 3 3 46 39 95 80 50 41 92 77 95 80 3 3 73 61 155 130 83
69 155 130 161 135 6 6 32 28 58 50 27 22 57 47 68 57 18 16 14 21 -114 153
-219 226 -365 365 -383 365 -5 -1 -22 -15 -37 -33z m-1045 -1523 c58 -42 75
-135 34 -195 -38 -56 -105 -77 -175 -55 -20 7 -37 -6 -120 -87 -53 -52 -127
-124 -163 -158 -116 -112 -434 -417 -441 -425 -5 -4 -8 -1 -8 7 0 8 24 39 53
70 29 30 99 106 157 168 58 62 125 134 150 160 73 76 258 275 280 301 14 16
18 30 13 44 -13 35 -7 103 11 131 30 45 75 67 132 62 29 -2 62 -12 77 -23z"/>
</g>
</svg>
